<?xml version="1.0" standalone="no"?>
<!DOCTYPE svg PUBLIC "-//W3C//DTD SVG 20010904//EN"
 "http://www.w3.org/TR/2001/REC-SVG-20010904/DTD/svg10.dtd">
<svg version="1.0" xmlns="http://www.w3.org/2000/svg"
 width="256.000000pt" height="256.000000pt" viewBox="0 0 256.000000 256.000000"
 preserveAspectRatio="xMidYMid meet">
<metadata>
Created by potrace 1.11, written by Peter Selinger 2001-2013
</metadata>
<g transform="translate(0.000000,256.000000) scale(0.100000,-0.100000)"
fill="#000000" stroke="none">
<path d="M795 2551 c-12 -5 -26 -15 -32 -22 -6 -8 -56 -126 -112 -262 -56
-137 -107 -256 -113 -266 -6 -10 -25 -26 -41 -36 -25 -15 -59 -17 -263 -17
l-234 0 0 -783 c0 -487 4 -803 10 -836 24 -126 107 -233 228 -291 l67 -33 975
0 975 0 70 34 c118 59 201 165 225 290 14 73 14 1839 0 1911 -21 112 -109 229
-206 275 -93 44 -105 44 -834 44 -382 0 -704 -4 -715 -8z"/>
</g>
</svg>
